<?xml version="1.0" standalone="no"?>
<!DOCTYPE svg PUBLIC "-//W3C//DTD SVG 20010904//EN"
 "http://www.w3.org/TR/2001/REC-SVG-20010904/DTD/svg10.dtd">
<svg version="1.0" xmlns="http://www.w3.org/2000/svg"
 width="48.000000pt" height="48.000000pt" viewBox="0 0 48.000000 48.000000"
 preserveAspectRatio="xMidYMid meet">

<g transform="translate(0.000000,48.000000) scale(0.100000,-0.100000)"
fill="#000000" stroke="none">
<path d="M52 367 c-20 -21 -22 -34 -22 -128 0 -98 2 -107 23 -128 22 -20 32
-21 148 -19 160 4 161 22 2 26 -65 1 -123 7 -130 14 -9 7 -13 40 -13 109 0 94
1 99 25 115 14 9 22 20 19 25 -9 15 -30 10 -52 -14z"/>
<path d="M137 384 c-18 -18 15 -24 132 -24 85 0 131 -4 139 -12 8 -8 12 -47
12 -109 0 -95 -1 -98 -27 -117 -25 -18 -26 -21 -10 -28 12 -4 26 1 43 16 23
22 24 30 24 130 0 98 -2 108 -23 128 -21 20 -34 22 -153 22 -72 0 -134 -3
-137 -6z"/>
<path d="M335 309 c11 -31 11 -107 0 -138 -6 -18 -5 -23 6 -19 8 2 21 23 29
46 13 37 13 47 0 84 -8 23 -21 44 -29 46 -11 4 -12 -1 -6 -19z"/>
<path d="M97 304 c-27 -27 12 -62 54 -49 33 11 21 49 -16 53 -17 2 -34 0 -38
-4z"/>
<path d="M295 240 c0 -33 3 -60 8 -60 15 0 28 55 20 84 -15 51 -28 40 -28 -24z"/>
<path d="M250 240 c0 -21 4 -30 13 -27 16 5 16 49 0 55 -9 2 -13 -7 -13 -28z"/>
</g>
</svg>
