<?xml version="1.0" encoding="UTF-8"?>
<svg version="1.1" xmlns="http://www.w3.org/2000/svg" width="64" height="64">
<path d="M0 0 C4.58695596 1.33822899 6.95933762 6.99259804 9.13671875 10.953125 C9.70503418 11.97865479 10.27334961 13.00418457 10.85888672 14.06079102 C11.45330566 15.14416748 12.04772461 16.22754395 12.66015625 17.34375 C17.76188761 26.63138148 17.76188761 26.63138148 23.17578125 35.73828125 C23.64161621 36.49463867 24.10745117 37.25099609 24.58740234 38.03027344 C25.44017673 39.40088241 26.30676371 40.76303975 27.18994141 42.11425781 C30.16578488 46.92362522 30.69194321 50.10324145 30.03515625 55.59375 C28.85839844 57.30215454 28.85839844 57.30215454 27.03515625 58.59375 C24.49267578 58.97470093 24.49267578 58.97470093 21.41796875 58.98193359 C20.2666748 58.99139008 19.11538086 59.00084656 17.92919922 59.0105896 C16.68541504 59.00451691 15.44163086 58.99844421 14.16015625 58.9921875 C12.88414551 58.99505768 11.60813477 58.99792786 10.29345703 59.00088501 C7.59311509 59.00292835 4.89358544 58.99888392 2.19335938 58.98486328 C-1.26703605 58.96777089 -4.72673346 58.97761307 -8.18710327 58.99558067 C-11.48804181 59.00903016 -14.78889611 58.99961244 -18.08984375 58.9921875 C-19.95552002 59.00129654 -19.95552002 59.00129654 -21.85888672 59.0105896 C-23.58582764 58.99640488 -23.58582764 58.99640488 -25.34765625 58.98193359 C-26.36230957 58.97954681 -27.37696289 58.97716003 -28.42236328 58.97470093 C-30.96484375 58.59375 -30.96484375 58.59375 -32.77441406 57.27700806 C-34.40225073 54.97526003 -34.65453025 52.91816102 -34.54394531 50.13574219 C-33.18270798 44.16053007 -29.47405058 38.92418736 -26.33984375 33.71875 C-25.61821169 32.49181333 -24.89814674 31.26395353 -24.1796875 30.03515625 C-22.78347751 27.65378981 -21.37441912 25.28092924 -19.95214844 22.91503906 C-18.67538226 20.78123966 -17.41419757 18.63799628 -16.17285156 16.48339844 C-15.64272461 15.56848633 -15.11259766 14.65357422 -14.56640625 13.7109375 C-14.10830566 12.91026855 -13.65020508 12.10959961 -13.17822266 11.28466797 C-12.77780762 10.72666504 -12.37739258 10.16866211 -11.96484375 9.59375 C-11.30484375 9.59375 -10.64484375 9.59375 -9.96484375 9.59375 C-10.49990944 13.91131249 -11.48617813 17.02937581 -13.66015625 20.7890625 C-14.20849121 21.74707764 -14.75682617 22.70509277 -15.32177734 23.69213867 C-15.90523926 24.69092041 -16.48870117 25.68970215 -17.08984375 26.71875 C-17.67717285 27.74395752 -18.26450195 28.76916504 -18.86962891 29.82543945 C-21.33773573 34.12297334 -23.8292435 38.40280118 -26.41796875 42.62890625 C-27.0521875 43.66917969 -27.68640625 44.70945313 -28.33984375 45.78125 C-28.88382813 46.64105469 -29.4278125 47.50085937 -29.98828125 48.38671875 C-31.14274065 50.53428513 -31.14274065 50.53428513 -30.81640625 52.83203125 C-30.53539062 53.41339844 -30.254375 53.99476562 -29.96484375 54.59375 C-27.0300493 55.57201482 -25.13867223 55.72035743 -22.08203125 55.72314453 C-21.09090332 55.72629669 -20.09977539 55.72944885 -19.07861328 55.73269653 C-17.47542236 55.72966019 -17.47542236 55.72966019 -15.83984375 55.7265625 C-14.19218018 55.72799759 -14.19218018 55.72799759 -12.51123047 55.72946167 C-10.18782494 55.73014245 -7.86441751 55.72829525 -5.54101562 55.72412109 C-1.97912332 55.71877145 1.58264288 55.72406956 5.14453125 55.73046875 C7.39973986 55.72980795 9.6549484 55.72852675 11.91015625 55.7265625 C12.9789502 55.72858673 14.04774414 55.73061096 15.14892578 55.73269653 C16.14005371 55.72954437 17.13118164 55.72639221 18.15234375 55.72314453 C19.02487793 55.72234894 19.89741211 55.72155334 20.79638672 55.72073364 C23.20680726 55.68208692 23.20680726 55.68208692 26.03515625 54.59375 C27.0248402 52.83583068 27.0248402 52.83583068 27.03515625 50.59375 C26.07542761 48.05587463 26.07542761 48.05587463 24.4921875 45.4375 C23.91807129 44.42373291 23.34395508 43.40996582 22.75244141 42.36547852 C22.1238623 41.28580811 21.4952832 40.2061377 20.84765625 39.09375 C19.90092041 37.43460571 19.90092041 37.43460571 18.93505859 35.74194336 C14.28075386 27.6245796 9.50214316 19.57923421 4.59301758 11.61328125 C4.12275146 10.845 3.65248535 10.07671875 3.16796875 9.28515625 C2.75434082 8.61685791 2.34071289 7.94855957 1.91455078 7.26000977 C1.03515625 5.59375 1.03515625 5.59375 1.03515625 3.59375 C-0.94484375 3.59375 -2.92484375 3.59375 -4.96484375 3.59375 C-5.62484375 5.24375 -6.28484375 6.89375 -6.96484375 8.59375 C-7.95484375 8.59375 -8.94484375 8.59375 -9.96484375 8.59375 C-9.61931987 6.03687331 -9.21397362 4.01873625 -7.90234375 1.78125 C-5.35622948 0.22072835 -2.94083489 0.13599237 0 0 Z " fill="#FFFFFF" transform="translate(33.96484375,2.40625)"/>
<path d="M0 0 C4.29715057 1.50982572 5.58839443 4.20069079 7.75 8.07421875 C8.08999023 8.6762764 8.42998047 9.27833405 8.78027344 9.89863586 C9.86379274 11.82270037 10.93206114 13.75475235 12 15.6875 C12.71774803 16.96866081 13.43648836 18.24926624 14.15625 19.52929688 C15.49061416 21.90511833 16.81784347 24.28440895 18.140625 26.66674805 C19.11465705 28.41286932 20.09405392 30.15669434 21.12304688 31.8710022 C24 36.69291658 24 36.69291658 24 40 C23.01 40 22.02 40 21 40 C20.40312378 38.92685547 20.40312378 38.92685547 19.79418945 37.83203125 C18.29551702 35.13986267 16.79497195 32.44874861 15.29321289 29.75830078 C14.33273062 28.03627108 13.37435026 26.31306956 12.41601562 24.58984375 C9.72060188 19.76350081 7.02619207 14.96780158 4.04296875 10.3125 C2 7 2 7 2 5 C1.34 5 0.68 5 0 5 C-0.2678833 5.7108374 -0.5357666 6.4216748 -0.81176758 7.15405273 C-2.03484998 10.08346953 -3.45558051 12.76892415 -5.01171875 15.53515625 C-5.60533203 16.59283203 -6.19894531 17.65050781 -6.81054688 18.74023438 C-7.42994141 19.83658203 -8.04933594 20.93292969 -8.6875 22.0625 C-9.58758789 23.66641602 -9.58758789 23.66641602 -10.50585938 25.30273438 C-14.59958104 32.57997321 -18.79143396 39.78531536 -23 47 C-7.16 47 8.68 47 25 47 C24.67 45.35 24.34 43.7 24 42 C24.99 42 25.98 42 27 42 C27.66 43.98 28.32 45.96 29 48 C27 50 27 50 24.78536987 50.24050903 C23.40637009 50.2338472 23.40637009 50.2338472 21.99951172 50.22705078 C20.95858368 50.22689972 19.91765564 50.22674866 18.84518433 50.22659302 C17.1545134 50.21110916 17.1545134 50.21110916 15.4296875 50.1953125 C14.27832306 50.1924826 13.12695862 50.18965271 11.94070435 50.18673706 C8.25203188 50.17551408 4.56359947 50.15040556 0.875 50.125 C-1.62109025 50.11497294 -4.1171843 50.10584662 -6.61328125 50.09765625 C-12.74226984 50.07556784 -18.87111777 50.04206947 -25 50 C-26.05522156 48.15296936 -26.05522156 48.15296936 -27 46 C-26.11645508 43.55249023 -26.11645508 43.55249023 -24.51953125 40.80859375 C-23.93719727 39.78967041 -23.35486328 38.77074707 -22.75488281 37.72094727 C-22.11389648 36.63740967 -21.47291016 35.55387207 -20.8125 34.4375 C-20.17280273 33.32882568 -19.53310547 32.22015137 -18.87402344 31.07788086 C-17.56227378 28.8080843 -16.24371408 26.54221007 -14.91845703 24.28027344 C-13.15367928 21.26276849 -11.41296363 18.23320896 -9.68359375 15.1953125 C-8.70629511 13.48405167 -7.72846468 11.77309438 -6.75 10.0625 C-6.29729736 9.27093506 -5.84459473 8.47937012 -5.37817383 7.66381836 C-4.95947021 6.94073486 -4.5407666 6.21765137 -4.109375 5.47265625 C-3.56748535 4.53305054 -3.56748535 4.53305054 -3.01464844 3.57446289 C-2 2 -2 2 0 0 Z " fill="#FFFFFF" transform="translate(31,7)"/>
<path d="M0 0 C4.55555556 0.55555556 4.55555556 0.55555556 6 2 C6.12658222 4.65822657 6.18520214 7.27887424 6.1875 9.9375 C6.19974609 10.67935547 6.21199219 11.42121094 6.22460938 12.18554688 C6.22988478 14.12513629 6.12188902 16.0642371 6 18 C5.34 18.66 4.68 19.32 4 20 C-0.55555556 19.44444444 -0.55555556 19.44444444 -2 18 C-2.12658222 15.34177343 -2.18520214 12.72112576 -2.1875 10.0625 C-2.19974609 9.32064453 -2.21199219 8.57878906 -2.22460938 7.81445312 C-2.22988478 5.87486371 -2.12188902 3.9357629 -2 2 C-1.34 1.34 -0.68 0.68 0 0 Z M1 3 C1 7.62 1 12.24 1 17 C1.66 17 2.32 17 3 17 C3 12.38 3 7.76 3 3 C2.34 3 1.68 3 1 3 Z " fill="#FFFFFF" transform="translate(30,22)"/>
<path d="M0 0 C1.98 0 3.96 0 6 0 C6.38133299 1.9914056 6.71325582 3.99279077 7 6 C6 7 6 7 2.9375 7.0625 C1.968125 7.041875 0.99875 7.02125 0 7 C-1.125 2.25 -1.125 2.25 0 0 Z " fill="#FFFFFF" transform="translate(29,43)"/>
</svg>
